<?xml version="1.0" standalone="no"?>
<!DOCTYPE svg PUBLIC "-//W3C//DTD SVG 1.1//EN" "http://www.w3.org/Graphics/SVG/1.1/DTD/svg11.dtd" >
<svg xmlns="http://www.w3.org/2000/svg" width="100%" height="100%">
<metadata>
Created by FontXChange 20110222 at Mon Sep 10 08:38:26 2012
 By Seyey Cunioci
1991 Erik Spiekermann, published by Fontshop International for the FontFont library.
</metadata>
<defs>
<font id="." horiz-adv-x="1417" >
  <font-face 
    font-family="."
    font-weight="500"
    font-stretch="normal"
    units-per-em="2048"
    panose-1="0 0 0 0 0 0 0 0 0 0"
    ascent="1638"
    descent="-410"
    x-height="1100"
    cap-height="1411"
    bbox="-55 -432 2105 1896"
    underline-thickness="40"
    underline-position="-270"
    unicode-range="U+0020-FB02"
  />
<missing-glyph horiz-adv-x="2048" 
 />
    <glyph glyph-name=".notdef" horiz-adv-x="2048" 
 />
    <glyph glyph-name="glyph1" horiz-adv-x="0" 
 />
    <glyph glyph-name="glyph2" horiz-adv-x="2048" 
 />
    <glyph glyph-name="space" unicode=" " horiz-adv-x="512" 
 />
    <glyph glyph-name="exclam" unicode="!" horiz-adv-x="575" 
d="M401 1442l-45 -1012h-143l-47 977zM422 123q0 -58 -40.5 -98.5t-96.5 -40.5q-55 0 -93 40t-38 99q0 56 38 94.5t95 38.5q56 0 95.5 -39t39.5 -94z" />
    <glyph glyph-name="quotedbl" unicode="&#x22;" horiz-adv-x="868" 
d="M705 928h-175v524h175v-524zM338 928h-174v524h174v-524z" />
    <glyph glyph-name="numbersign" unicode="#" horiz-adv-x="1128" 
d="M1067 881h-211l-43 -310h193v-139h-211l-62 -432h-147l59 432h-250l-59 -432h-148l60 432h-187v139h207l41 310h-188v141h209l59 428h148l-60 -428h250l59 428h148l-60 -428h193v-141zM709 881h-250l-43 -310h250z" />
    <glyph glyph-name="dollar" unicode="$" horiz-adv-x="1191" 
d="M1090 416q0 -165 -120.5 -286t-303.5 -148v-191h-127v184q-235 0 -437 123l78 154q184 -115 359 -115v512l-74 25q-94 31 -147 61.5t-91 75.5q-75 90 -75 221q0 166 103.5 274t283.5 136v164h127v-162q98 -3 199.5 -39t185.5 -94l-88 -140q-172 107 -297 107v-438l79 -25
q91 -28 150 -62t100 -83q95 -113 95 -254zM866 381q0 83 -52 141t-148 88v-465q90 21 145 83.5t55 152.5zM539 872v398q-86 -24 -127 -72.5t-41 -130.5q0 -69 39.5 -114.5t128.5 -80.5z" />
    <glyph glyph-name="percent" unicode="%" horiz-adv-x="1740" 
d="M1659 328q0 -157 -92.5 -250.5t-243.5 -93.5q-158 0 -247 93t-89 255q0 159 91 252.5t241 93.5q160 0 250 -93t90 -257zM754 1075q0 -157 -92.5 -250.5t-243.5 -93.5q-158 0 -247 93t-89 255q0 159 91 252.5t241 93.5q160 0 250 -93t90 -257zM1292 1407l-698 -1405h-139
l696 1405h141zM596 1067q0 131 -44 186.5t-136 55.5q-176 0 -176 -222q0 -130 43.5 -184.5t136.5 -54.5q176 0 176 219zM1501 319q0 131 -44 186.5t-136 55.5q-90 0 -133 -55t-43 -166q0 -130 43.5 -185t136.5 -55q176 0 176 219z" />
    <glyph glyph-name="ampersand" unicode="&#x26;" horiz-adv-x="1390" 
d="M1370 4h-256l-123 121q-65 -72 -169.5 -113t-227.5 -41q-233 0 -357 105.5t-124 275.5q0 67 19.5 121t59.5 96.5t87 74.5t116 67q-103 82 -147.5 153t-44.5 162q0 139 104.5 233.5t267.5 94.5q164 0 275 -85.5t111 -230.5q0 -203 -289 -336l305 -303q39 90 39 277h155
q0 -154 -15 -237t-54 -167zM885 231l-387 381q-181 -97 -181 -262q0 -109 75 -173t208 -64q93 0 168 31.5t117 86.5zM758 1038q0 81 -50.5 132t-129.5 51q-78 0 -128.5 -45t-50.5 -129q0 -112 168 -248q191 92 191 239z" />
    <glyph glyph-name="quotesingle" unicode="'" horiz-adv-x="501" 
d="M338 928h-174v524h174v-524z" />
    <glyph glyph-name="parenleft" unicode="(" horiz-adv-x="604" 
d="M305 664q0 -97 5 -179.5t17.5 -175.5t37 -170t61 -148t92.5 -127t127 -91l-49 -99q-135 51 -239.5 160t-161.5 258q-41 109 -61.5 265.5t-20.5 301.5q0 370 96 551q66 124 164.5 224t220.5 153l47 -98q-116 -77 -181.5 -159t-101.5 -202q-53 -176 -53 -464z" />
    <glyph glyph-name="parenright" unicode=")" horiz-adv-x="606" 
d="M-41 -227q86 42 149 115.5t99.5 157.5t58 194t28.5 207.5t7 216.5q0 259 -55 464q-32 120 -98.5 201t-184.5 160l47 98q122 -53 220.5 -153t164.5 -224q99 -186 99 -551q0 -149 -20.5 -305t-63.5 -262q-62 -150 -165.5 -258.5t-236.5 -159.5z" />
    <glyph glyph-name="asterisk" unicode="*" horiz-adv-x="921" 
d="M860 1106l-282 -96l178 -248l-115 -90l-182 256l-174 -252l-115 88l178 246l-287 98l45 139l287 -102v305h139v-303l285 96z" />
    <glyph glyph-name="plus" unicode="+" horiz-adv-x="1157" 
d="M1055 465h-389v-395h-174v395h-390v178h390v395h174v-395h389v-178z" />
    <glyph glyph-name="comma" unicode="," horiz-adv-x="587" 
d="M444 70q0 -118 -72.5 -217t-183.5 -146l-65 92q56 23 94.5 68.5t38.5 85.5q0 8 -3 14.5t-10 12.5t-13 9t-18.5 9.5t-18.5 9.5q-68 37 -68 119q0 65 43 109.5t106 44.5q74 0 122 -59t48 -152z" />
    <glyph glyph-name="hyphen" unicode="-" horiz-adv-x="620" 
d="M518 461h-416v186h416v-186z" />
    <glyph glyph-name="period" unicode="." horiz-adv-x="577" 
d="M434 125q0 -64 -41.5 -109t-103.5 -45t-104 45t-42 109t42 109t104 45t103.5 -45t41.5 -109z" />
    <glyph glyph-name="slash" unicode="/" horiz-adv-x="917" 
d="M795 1559l-533 -1864h-139l532 1864h140z" />
    <glyph glyph-name="zero" unicode="0" horiz-adv-x="1148" 
d="M1036 510q0 -246 -126.5 -392.5t-334.5 -146.5q-217 0 -339.5 145.5t-122.5 397.5q0 248 126 394.5t334 146.5q217 0 340 -146.5t123 -398.5zM834 492q0 227 -64 322t-199 95q-256 0 -256 -374q0 -227 64 -322.5t199 -95.5q256 0 256 375z" />
    <glyph glyph-name="one" unicode="1" horiz-adv-x="864" 
d="M772 0h-565v152h201v679q-119 -77 -271 -135l-45 99l363 256h137v-899h180v-152z" />
    <glyph glyph-name="two" unicode="2" horiz-adv-x="1112" 
d="M979 156l-39 -156h-797v166l267 194q68 50 104.5 78.5t82 69.5t67.5 72.5t37.5 71t15.5 81.5q0 82 -54.5 126t-152.5 44q-68 0 -144.5 -32.5t-118.5 -64.5l-42 -32l-92 105q114 99 219.5 144.5t230.5 45.5q166 0 269.5 -83t103.5 -224q0 -213 -330 -445l-239 -167
q141 6 211 6h401z" />
    <glyph glyph-name="three" unicode="3" horiz-adv-x="1058" 
d="M946 104q0 -144 -94 -251q-102 -113 -248 -170.5t-356 -57.5q-74 0 -123 8l-41 127q69 -11 154.5 -7t152.5 18q147 32 242.5 125t95.5 225q0 74 -40 131t-107 80q-90 29 -226 22l-47 -2v146l49 -2q77 -4 135.5 3.5t107.5 29t75 64t26 105.5q0 93 -60.5 149t-164.5 56
q-83 0 -150.5 -27t-164.5 -85l-90 106q90 73 206.5 118.5t229.5 45.5q177 0 290 -94.5t113 -241.5q0 -105 -62.5 -186t-184.5 -121q127 -32 204.5 -119t77.5 -195z" />
    <glyph glyph-name="four" unicode="4" horiz-adv-x="1132" 
d="M1020 16h-98l-66 4q6 -38 6 -71v-297l-182 -39v330l2 75q-51 -2 -84 -2h-526v142l440 909h201l-351 -725q-65 -134 -98 -176q10 0 36.5 3t43.5 3h254l88 -2l-4 59q-3 41 10 199l23 268l147 41v-391q0 -68 -2 -113l-2 -63q45 2 72 2h90v-156z" />
    <glyph glyph-name="five" unicode="5" horiz-adv-x="1003" 
d="M891 117q0 -146 -81.5 -261t-218.5 -177t-304 -62q-77 0 -148 18l-37 138q76 -27 160 -27q180 0 302 103t122 255q0 119 -77 187.5t-208 68.5q-146 0 -268 -45l66 711h626l-28 -160h-424l-33 -370q68 10 131 10q183 0 301.5 -105t118.5 -284z" />
    <glyph glyph-name="six" unicode="6" horiz-adv-x="1150" 
d="M1038 422q0 -192 -130.5 -322.5t-323.5 -130.5q-211 0 -341 156.5t-130 409.5q0 207 94.5 382.5t251.5 303.5q190 154 411 219l43 -127q-100 -31 -209.5 -99.5t-179.5 -144.5q-72 -80 -111 -160.5t-69 -183.5q117 106 283 106q79 0 153 -29t131.5 -80.5t92 -129.5
t34.5 -170zM831 418q0 126 -66.5 196t-172.5 70q-125 0 -258 -94q-6 -49 -6 -119q0 -173 66 -264.5t186 -91.5q116 0 183.5 82t67.5 221z" />
    <glyph glyph-name="seven" unicode="7" horiz-adv-x="985" 
d="M934 1026l-39 -180q-71 -103 -166 -258q-99 -161 -233 -479q-119 -282 -154 -441l-221 -59q22 110 43 178t63 178q78 205 193 418q162 302 323 489q-39 -10 -170 -10h-522l43 164h840z" />
    <glyph glyph-name="eight" unicode="8" horiz-adv-x="1179" 
d="M1067 371q0 -176 -136.5 -291t-350.5 -115q-210 0 -338.5 106.5t-128.5 274.5q0 130 79.5 222t202.5 139q-120 50 -178.5 133t-58.5 182q0 159 119.5 254.5t326.5 95.5q185 0 300.5 -89.5t115.5 -233.5q0 -108 -74 -190t-213 -132q38 -11 103 -46.5t112 -72.5
q61 -50 90 -104t29 -133zM862 332q0 100 -63 157q-65 57 -289 150q-95 -53 -145 -117t-50 -162q0 -117 77 -186.5t206 -69.5q117 0 190.5 64t73.5 164zM823 1044q0 89 -64.5 141t-174.5 52q-109 0 -173.5 -53t-64.5 -144q0 -76 61 -133.5t197 -113.5q115 60 167 119.5
t52 131.5z" />
    <glyph glyph-name="nine" unicode="9" horiz-adv-x="1120" 
d="M1008 545q0 -183 -74.5 -355.5t-212.5 -316.5q-104 -109 -247 -187t-273 -106l-99 111q95 19 210.5 78.5t201.5 134.5q159 136 234 342q-121 -82 -242 -82q-179 0 -296.5 123.5t-117.5 312.5q0 199 133.5 332t331.5 133q201 0 326 -139.5t125 -380.5zM801 571
q0 158 -69 253.5t-183 95.5q-112 0 -180 -87t-68 -227q0 -138 64.5 -216.5t177.5 -78.5q119 0 237 103q21 99 21 157z" />
    <glyph glyph-name="colon" unicode=":" horiz-adv-x="616" 
d="M453 121q0 -61 -43 -103.5t-105 -42.5q-60 0 -100.5 42t-40.5 104q0 63 42 107t103 44q59 0 101.5 -44t42.5 -107zM453 768q0 -63 -43 -106.5t-103 -43.5t-101.5 42.5t-41.5 103.5q0 62 42 105.5t103 43.5q59 0 101.5 -42.5t42.5 -102.5z" />
    <glyph glyph-name="semicolon" unicode=";" horiz-adv-x="649" 
d="M485 70q0 -118 -72.5 -217t-183.5 -146l-65 92q56 23 94.5 68.5t38.5 85.5q0 8 -3 14.5t-10.5 12.5t-13.5 9l-18 9t-19 10q-67 37 -67 119q0 65 43 109.5t106 44.5q74 0 122 -59t48 -152zM457 764q0 -60 -43 -104t-103 -44t-102.5 44t-42.5 106q0 60 41.5 102.5
t101.5 42.5t104 -43.5t44 -103.5z" />
    <glyph glyph-name="less" unicode="&#x3c;" horiz-adv-x="696" 
d="M614 172l-155 -113l-418 555l418 553l155 -112l-331 -441z" />
    <glyph glyph-name="equal" unicode="=" horiz-adv-x="1280" 
d="M1178 717h-1076v170h1076v-170zM1178 358h-1076v170h1076v-170z" />
    <glyph glyph-name="greater" unicode="&#x3e;" horiz-adv-x="696" 
d="M655 614l-419 -555l-154 113l332 442l-332 441l154 112z" />
    <glyph glyph-name="question" unicode="?" horiz-adv-x="894" 
d="M793 1120q0 -35 -7.5 -68t-17.5 -58t-27.5 -50.5t-31 -42t-35 -35.5t-32.5 -27.5t-30.5 -22t-21.5 -15.5q-138 -99 -125 -277q1 -12 4 -33t4 -30h-162q-62 248 123 416q18 16 56.5 45.5t58 47.5t37.5 53.5t18 78.5q0 77 -53 122.5t-133 45.5q-126 0 -256 -90l-80 123
q66 56 165.5 93.5t209.5 37.5q145 0 240.5 -86t95.5 -228zM557 123q0 -62 -42.5 -106t-102.5 -44q-58 0 -99 44t-41 106q0 58 40.5 98.5t99.5 40.5t102 -40.5t43 -98.5z" />
    <glyph glyph-name="at" unicode="@" horiz-adv-x="1886" 
d="M1774 565q0 -263 -135.5 -428.5t-329.5 -165.5q-114 0 -171.5 50.5t-64.5 128.5q-57 -68 -138.5 -111t-168.5 -43q-101 0 -174.5 77t-73.5 220q0 124 36.5 237t104.5 202.5t176.5 142.5t243.5 53q138 0 277 -74q-16 -52 -30 -106t-28.5 -117.5t-23 -103t-25 -117.5
t-22.5 -107q-20 -77 -13 -120.5t29.5 -58.5t71.5 -15q111 0 194.5 132t83.5 324q0 158 -78.5 289.5t-224 210t-329.5 78.5q-145 0 -271.5 -61t-212 -161.5t-134 -231t-48.5 -269.5q0 -177 85.5 -319t229 -220t314.5 -78q162 0 295 45l36 -139q-142 -47 -331 -47
q-130 0 -250 31.5t-222 95t-177.5 153t-118.5 212.5t-43 266q0 178 64 337t175 274t269.5 182t339.5 67q170 0 319.5 -51t258.5 -143t172 -227t63 -294zM1151 778q-35 15 -86 15q-75 0 -137 -31t-104 -82t-71 -118t-42 -137t-13 -140q0 -78 27.5 -109t83.5 -31
q74 0 154.5 71t107.5 196z" />
    <glyph glyph-name="A" unicode="A" horiz-adv-x="1163" 
d="M1163 0h-221l-125 399h-489l-123 -399h-205l463 1413h246zM774 563q-19 49 -97.5 320.5t-92.5 333.5h-13q-16 -63 -96 -334t-98 -320h397z" />
    <glyph glyph-name="B" unicode="B" horiz-adv-x="1265" 
d="M1133 387q0 -142 -78 -236t-207 -128q-91 -23 -223 -23h-430v1411h299q183 0 253.5 -9t135.5 -44q190 -100 190 -295q0 -112 -64.5 -192.5t-191.5 -118.5q157 -35 236.5 -129.5t79.5 -235.5zM915 410q0 86 -42.5 150t-108.5 79q-56 12 -148 12h-227v-491h279
q46 0 88.5 14t78.5 43t58 78.5t22 114.5zM860 1030q0 73 -37.5 127.5t-99.5 73.5q-46 14 -143 14h-193v-430h223q90 0 133.5 17.5t75.5 60.5q41 56 41 137z" />
    <glyph glyph-name="C" unicode="C" horiz-adv-x="1208" 
d="M725 -20q-138 0 -251 56.5t-187 153.5t-114 226.5t-40 277.5q0 241 92 420q79 152 212.5 238t295.5 86q210 0 346 -111l-96 -129q-112 82 -250 82q-104 0 -183.5 -52t-129.5 -151q-68 -136 -68 -379q0 -212 51 -331q48 -114 139.5 -172t207.5 -58q147 0 260 88l96 -129
q-162 -116 -381 -116z" />
    <glyph glyph-name="D" unicode="D" horiz-adv-x="1308" 
d="M1176 705q0 -323 -154 -515q-77 -97 -187 -143.5t-288 -46.5h-352v1411h327q189 0 312 -51.5t217 -181.5q125 -174 125 -473zM956 680q0 160 -22.5 266.5t-81.5 181.5q-57 71 -124 98t-173 27h-160v-1091h156q125 0 204.5 36.5t125.5 120.5q75 138 75 361z" />
    <glyph glyph-name="E" unicode="E" horiz-adv-x="1046" 
d="M985 0h-790v1411h768l-27 -162h-543v-430h455v-166h-453v-483h590v-170z" />
    <glyph glyph-name="F" unicode="F" horiz-adv-x="929" 
d="M930 1411l-27 -162h-510v-428h418v-159h-418v-662h-198v1411h735z" />
    <glyph glyph-name="G" unicode="G" horiz-adv-x="1345" 
d="M1161 92q-86 -54 -195.5 -83t-222.5 -29q-283 0 -446 190q-85 98 -124.5 226t-39.5 302q0 411 244 611q147 121 354 121q235 0 399 -142l-94 -123q-78 57 -148.5 82t-152.5 25q-217 0 -303 -180q-47 -96 -62.5 -183t-15.5 -221q0 -294 101 -426q45 -59 128 -93t175 -34
q117 0 209 53v402h-260l-33 162h487v-660z" />
    <glyph glyph-name="H" unicode="H" horiz-adv-x="1320" 
d="M1126 0h-198v670h-539v-670h-194v1411h194v-580h539v580h198v-1411z" />
    <glyph glyph-name="I" unicode="I" horiz-adv-x="589" 
d="M395 0h-200v1411h200v-1411z" />
    <glyph glyph-name="J" unicode="J" horiz-adv-x="600" 
d="M406 250q0 -151 -15 -227.5t-55 -137.5q-79 -116 -234 -174l-92 109q53 27 96.5 68t65.5 83q19 38 27 95.5t8 169.5v1175h199v-1161z" />
    <glyph glyph-name="K" unicode="K" horiz-adv-x="1204" 
d="M1163 0h-256l-504 754l494 657h248l-516 -655zM395 0h-200v1411h200v-1411z" />
    <glyph glyph-name="L" unicode="L" horiz-adv-x="952" 
d="M932 164l-33 -164h-704v1411h200v-1247h537z" />
    <glyph glyph-name="M" unicode="M" horiz-adv-x="1677" 
d="M1534 0h-197l-73 961q-3 34 -5 80t-3.5 92.5t-2.5 56.5h-4q-23 -120 -51 -211l-280 -979h-170l-259 934q-30 106 -63 258h-4q-7 -172 -14 -258l-72 -934h-193l127 1411h277l237 -866q42 -157 52 -232h4q22 128 49 222l246 876h278z" />
    <glyph glyph-name="N" unicode="N" horiz-adv-x="1329" 
d="M1135 0h-211l-371 750q-132 266 -172 387l-12 -2q12 -148 16 -394l8 -741h-198v1411h229l393 -778q40 -80 85 -191.5t54 -146.5l13 4q-21 215 -21 420l-4 692h191v-1411z" />
    <glyph glyph-name="O" unicode="O" 
d="M1284 696q0 -216 -67 -378t-196.5 -251.5t-305.5 -89.5q-143 0 -254.5 55t-182.5 153.5t-108 231.5t-37 294q0 344 154.5 534.5t417.5 190.5q121 0 219.5 -39.5t164.5 -107.5t110.5 -163t64.5 -202t20 -228zM1059 678q0 301 -81 452.5t-273 151.5q-184 0 -267.5 -136
t-83.5 -413q0 -112 11 -201.5t37 -166.5t66.5 -128.5t103 -80.5t143.5 -29q169 0 256.5 132t87.5 419z" />
    <glyph glyph-name="P" unicode="P" horiz-adv-x="1155" 
d="M1094 1001q0 -121 -39.5 -206t-132.5 -156q-58 -44 -124 -65t-173 -21h-234v-553h-196v1411h376q134 0 206 -14.5t130 -50.5q187 -117 187 -345zM874 979q0 142 -73 206t-226 64h-184v-536h221q140 0 203 80q59 74 59 186z" />
    <glyph glyph-name="Q" unicode="Q" 
d="M1436 -96l-56 -140q-35 -20 -118 -20q-100 0 -263 104q-80 52 -142 81.5t-155 50.5q-251 0 -405 186q-164 194 -164 547q0 230 75.5 400.5t213.5 252.5q119 70 280 70q150 0 262 -59.5t183 -159.5q137 -196 137 -519q0 -194 -50 -332t-151 -239q-50 -50 -98 -80
q46 -17 176 -92q98 -59 187 -59q52 0 88 8zM1057 680q0 265 -60 410q-34 80 -106 136t-189 56q-88 0 -163.5 -42t-112.5 -110q-74 -139 -74 -397q0 -167 28.5 -294.5t76.5 -190.5q44 -57 112.5 -88t145.5 -31q165 0 250 125q92 133 92 426z" />
    <glyph glyph-name="R" unicode="R" horiz-adv-x="1179" 
d="M1118 0h-239q-45 87 -117 209q-92 152 -133 212.5t-111 139.5q-20 22 -36.5 35t-39 20.5t-51.5 8.5v-625h-196v1411h395q121 0 200.5 -26t133.5 -76q125 -117 125 -291q0 -82 -26 -154t-73.5 -124.5t-119.5 -82t-158 -26.5q30 -24 57 -52.5t36 -39.5t30 -39
q36 -49 99.5 -147t136 -214t87.5 -139zM842 1016q0 72 -36 127.5t-95 79.5q-67 26 -172 26h-148v-491h137q93 0 150 16t94 51q33 31 51.5 81t18.5 110z" />
    <glyph glyph-name="S" unicode="S" horiz-adv-x="1232" 
d="M1110 412q0 -61 -19 -121.5t-61.5 -118t-103.5 -101.5t-151 -71t-197 -27q-251 0 -455 125l78 152q189 -117 381 -117q139 0 222 66.5t83 179.5q0 172 -234 239l-147 44q-167 48 -250.5 133.5t-83.5 230.5q0 183 129 296.5t338 113.5q243 0 432 -133l-88 -140
q-100 61 -174.5 86t-161.5 25q-118 0 -187 -57.5t-69 -155.5q0 -76 48 -122.5t161 -80.5l166 -49q154 -45 249 -144t95 -253z" />
    <glyph glyph-name="T" unicode="T" horiz-adv-x="948" 
d="M989 1411l-20 -164h-367v-1247h-194v1247h-367v164h948z" />
    <glyph glyph-name="U" unicode="U" horiz-adv-x="1318" 
d="M1135 442q0 -133 -13.5 -186.5t-60.5 -112.5q-136 -166 -406 -166q-316 0 -426 197q-28 50 -36.5 96.5t-8.5 155.5v985h199v-911q0 -217 51 -275q69 -80 223 -80q159 0 230 93q51 66 51 233v940h197v-969z" />
    <glyph glyph-name="V" unicode="V" horiz-adv-x="1101" 
d="M1122 1411l-479 -1415h-192l-471 1415h217l270 -850q62 -189 76 -293h12q1 6 29 107q23 82 57 188l277 848h204z" />
    <glyph glyph-name="W" unicode="W" horiz-adv-x="1609" 
d="M1610 1411l-328 -1415h-242l-155 711q-54 250 -72 407h-12q-25 -178 -72 -399l-151 -719h-244l-334 1415h213l156 -727q19 -92 33.5 -176.5t27 -171.5t14.5 -98h13q41 258 78 428l163 745h228l161 -749q59 -267 74 -418h13q38 254 81 452l150 715h205z" />
    <glyph glyph-name="X" unicode="X" horiz-adv-x="1101" 
d="M1102 0h-240l-317 606l-305 -606h-240l426 760l-377 651h240l254 -479l241 479h236l-356 -639z" />
    <glyph glyph-name="Y" unicode="Y" horiz-adv-x="1040" 
d="M1071 1411l-450 -850v-561h-205v565l-447 846h242l233 -481q45 -91 78 -182q54 123 82 180l238 483h229z" />
    <glyph glyph-name="Z" unicode="Z" horiz-adv-x="1095" 
d="M993 164l-49 -164h-842v152l570 956q40 69 100 145q-62 -6 -162 -6h-483l47 164h811v-158l-563 -956q-17 -29 -47.5 -73.5t-40.5 -61.5q43 2 141 2h518z" />
    <glyph glyph-name="bracketleft" unicode="[" horiz-adv-x="573" 
d="M532 -317h-358v1818h358v-133h-188v-1554h188v-131z" />
    <glyph glyph-name="backslash" unicode="\" horiz-adv-x="806" 
d="M786 -39l-155 -55l-611 1585l156 55z" />
    <glyph glyph-name="bracketright" unicode="]" horiz-adv-x="573" 
d="M399 -317h-358v131h188v1554h-188v133h358v-1818z" />
    <glyph glyph-name="asciicircum" unicode="^" horiz-adv-x="1257" 
d="M1135 614h-185l-321 656l-320 -656h-186l416 836h180z" />
    <glyph glyph-name="underscore" unicode="_" horiz-adv-x="1024" 
d="M1024 -256h-1024v102h1024v-102z" />
    <glyph glyph-name="grave" unicode="`" horiz-adv-x="686" 
d="M594 1264l-57 -111l-445 209l90 174z" />
    <glyph glyph-name="a" unicode="a" horiz-adv-x="1079" 
d="M1059 0h-215l-105 287h-411l-105 -287h-203l410 1102h227zM696 442l-159 496l-160 -496h319z" />
    <glyph glyph-name="b" unicode="b" horiz-adv-x="1165" 
d="M1032 307q0 -92 -54 -168t-144 -108q-54 -19 -107 -25t-149 -6h-383v1100h352q156 0 244 -31q86 -31 138 -97t52 -149q0 -88 -59.5 -152t-149.5 -87q111 -20 185.5 -94t74.5 -183zM817 324q0 168 -239 168h-189v-334h184q39 0 70 3t65 13.5t56.5 28t37.5 48.5t15 73z
M772 793q0 143 -215 143h-170v-287h182q44 0 76.5 5.5t63 20t47 44.5t16.5 74z" />
    <glyph glyph-name="c" unicode="c" horiz-adv-x="1075" 
d="M1004 82q-125 -98 -340 -98q-243 0 -387 152.5t-144 398.5q0 157 64.5 289t189 214t285.5 82q87 0 170.5 -23.5t138.5 -64.5l-96 -131q-103 62 -211 62q-86 0 -157 -41t-111 -113q-56 -95 -56 -262q0 -116 19.5 -184t68.5 -123q94 -107 244 -107q110 0 227 70z" />
    <glyph glyph-name="d" unicode="d" horiz-adv-x="1200" 
d="M1067 549q0 -101 -24.5 -188t-62 -145t-86.5 -102t-94 -67t-89 -33q-66 -14 -197 -14h-319v1100h245q209 0 312 -37q315 -107 315 -514zM852 535q0 73 -9.5 132t-33 111.5t-60.5 87.5t-95 55.5t-134 20.5h-129v-782h152q165 0 237 98t72 277z" />
    <glyph glyph-name="e" unicode="e" horiz-adv-x="962" 
d="M901 0h-706v1100h688l-27 -162h-465v-285h387v-159h-385v-326h508v-168z" />
    <glyph glyph-name="f" unicode="f" horiz-adv-x="849" 
d="M850 1100l-25 -158h-436v-287h356v-157h-356v-498h-194v1100h655z" />
    <glyph glyph-name="g" unicode="g" horiz-adv-x="1226" 
d="M1053 78q-159 -92 -371 -92q-258 0 -403.5 152t-145.5 411t141 412t394 153q203 0 364 -119l-98 -125q-67 45 -126.5 66.5t-137.5 21.5q-215 0 -277 -155q-45 -115 -45 -266q0 -271 141 -353q88 -53 203 -53q92 0 164 35v274h-219l-29 160h445v-522z" />
    <glyph glyph-name="h" unicode="h" horiz-adv-x="1220" 
d="M1026 0h-197v502h-438v-502h-196v1100h196v-438h438v438h197v-1100z" />
    <glyph glyph-name="i" unicode="i" horiz-adv-x="587" 
d="M393 0h-198v1100h198v-1100z" />
    <glyph glyph-name="j" unicode="j" horiz-adv-x="587" 
d="M393 193q0 -138 -16 -195q-24 -82 -94.5 -144t-167.5 -94l-95 105q104 49 150 125q18 27 23.5 71t5.5 125v914h194v-907z" />
    <glyph glyph-name="k" unicode="k" horiz-adv-x="1114" 
d="M1073 0h-254l-424 584l414 516h246l-441 -510zM393 0h-198v1100h198v-1100z" />
    <glyph glyph-name="l" unicode="l" horiz-adv-x="856" 
d="M856 162l-31 -162h-630v1100h198v-938h463z" />
    <glyph glyph-name="m" unicode="m" horiz-adv-x="1523" 
d="M1380 0h-194l-51 684q-11 158 -11 244q0 -1 -10.5 -43t-26 -100t-26.5 -95l-221 -690h-170l-211 686q-16 50 -36.5 139.5t-23.5 108.5q0 -47 -14 -248l-51 -686h-191l113 1100h260l189 -625q8 -27 18 -70t17.5 -78.5t13.5 -65t6 -30.5l6 30q7 30 15 65t18.5 77.5
t19.5 69.5l191 627h262z" />
    <glyph glyph-name="n" unicode="n" horiz-adv-x="1224" 
d="M1030 0h-203l-309 549q-27 49 -67 130.5t-67 138.5l-26 56q21 -211 23 -348l8 -526h-194v1100h221l315 -555q28 -50 63.5 -124t57.5 -123l22 -48q-24 207 -26 336l-6 514h188v-1100z" />
    <glyph glyph-name="o" unicode="o" horiz-adv-x="1290" 
d="M1157 547q0 -126 -29 -227.5t-89 -178t-158 -118t-228 -41.5q-166 0 -285 74.5t-177 201.5t-58 293q0 263 136 414t372 151q128 0 227.5 -42.5t162 -119.5t94.5 -179.5t32 -227.5zM936 532q0 73 -5.5 128t-23.5 115t-49.5 98.5t-87.5 64t-133 25.5q-75 0 -136 -30.5
t-93 -84.5q-58 -98 -58 -285q0 -206 70 -330q59 -106 233 -106q71 0 123 24t82 61.5t48 93.5t24 108.5t6 117.5z" />
    <glyph glyph-name="p" unicode="p" horiz-adv-x="1062" 
d="M1001 768q0 -166 -127 -264q-63 -48 -132.5 -69t-174.5 -21h-178v-414h-194v1100h319q138 0 200 -12t117 -41q81 -45 125.5 -117t44.5 -162zM784 756q0 46 -14 80t-36 54t-56.5 31.5t-68 15t-77.5 3.5h-143v-371h174q221 0 221 187z" />
    <glyph glyph-name="q" unicode="q" horiz-adv-x="1290" 
d="M1352 -98l-58 -119q-52 -35 -204 10q-33 10 -109.5 54.5t-155.5 85.5t-129 49q-9 0 -27 1t-28 1q-122 3 -206.5 37t-151.5 108q-150 163 -150 422q0 260 138 412.5t372 152.5q127 0 226.5 -43t162.5 -120t95 -180t32 -226q0 -368 -237 -502q67 -25 118 -53
q13 -7 40.5 -22.5t41.5 -22.5t36 -17.5t40.5 -17t38.5 -10.5q63 -15 115 0zM938 532q0 72 -5.5 127.5t-24.5 115.5t-51 99t-88 64t-132 25q-69 0 -121.5 -23.5t-83 -60t-49 -91t-25 -107.5t-6.5 -118q0 -225 67.5 -330.5t233.5 -105.5q59 0 105 16t76.5 46t51.5 67t32 85
t15.5 93t4.5 98z" />
    <glyph glyph-name="r" unicode="r" horiz-adv-x="1073" 
d="M1032 0h-237q-18 31 -55.5 90.5t-49.5 79.5q-123 196 -205 260q-44 35 -96 41v-471h-194v1100h327q122 0 193.5 -16t122.5 -52q59 -43 92 -106.5t33 -139.5q0 -136 -83 -218.5t-223 -88.5q34 -23 56 -51q53 -68 172.5 -228t146.5 -200zM760 780q0 42 -16 72.5t-39.5 47.5
t-59 26.5t-66 12.5t-69.5 3h-121v-334h107q45 0 77 2.5t70 12.5t61.5 27.5t39.5 50.5t16 79z" />
    <glyph glyph-name="s" unicode="s" horiz-adv-x="1124" 
d="M539 137q102 0 173.5 42t71.5 120q0 60 -45.5 98t-148.5 66l-156 41q-115 30 -192.5 106.5t-77.5 188.5q0 146 117 237.5t301 91.5q108 0 215.5 -29t179.5 -79l-90 -141q-146 88 -297 88q-96 0 -154.5 -38.5t-58.5 -103.5q0 -52 40 -84t134 -57l149 -39q301 -78 301 -311
q0 -91 -49 -169t-135 -124q-119 -64 -289 -64q-220 0 -405 99l74 151q170 -90 342 -90z" />
    <glyph glyph-name="t" unicode="t" horiz-adv-x="913" 
d="M893 1100l-27 -162h-317v-938h-195v938h-313v162h852z" />
    <glyph glyph-name="u" unicode="u" horiz-adv-x="1220" 
d="M1036 391q0 -129 -20.5 -190t-77.5 -115q-113 -104 -328 -104q-150 0 -245 47t-138 125q-26 45 -34.5 92.5t-8.5 140.5v713h197v-676q0 -129 16 -168q22 -54 78.5 -83.5t136.5 -29.5q131 0 185 70q24 31 32.5 69.5t8.5 116.5v701h198v-709z" />
    <glyph glyph-name="v" unicode="v" horiz-adv-x="1028" 
d="M1028 1100l-428 -1104h-182l-418 1104h213l225 -621q17 -47 36 -113t30 -108l10 -43q37 154 76 258l235 627h203z" />
    <glyph glyph-name="w" unicode="w" horiz-adv-x="1429" 
d="M1430 1100l-289 -1106h-232l-123 502q-17 70 -34 158t-26.5 143.5t-10.5 68.5q0 -1 -4.5 -27t-11 -64.5t-14.5 -83.5t-18.5 -96t-19.5 -91l-119 -510h-235l-293 1106h209l127 -506q18 -72 36.5 -170.5t26.5 -151.5t11 -73q0 1 4.5 28t11 67t15 88t20 103t22.5 99l127 516
h219l134 -551q14 -55 29 -135.5t25 -142t11 -64.5q0 1 4.5 28.5t12 68.5t16 88.5t20 101t21.5 94.5l125 512h203z" />
    <glyph glyph-name="x" unicode="x" horiz-adv-x="1038" 
d="M1018 0h-236l-266 442l-254 -442h-242l375 588l-329 512h235l209 -350l205 350h231l-315 -500z" />
    <glyph glyph-name="y" unicode="y" horiz-adv-x="991" 
d="M991 1100l-397 -656v-444h-203v444l-391 656h240l194 -365q16 -29 32.5 -67t25.5 -61l8 -23q30 88 65 151l199 365h227z" />
    <glyph glyph-name="z" unicode="z" horiz-adv-x="1003" 
d="M901 160l-53 -160h-746v135l500 711q12 17 33.5 43t36.5 43l16 18q-86 -10 -145 -10h-422l49 160h721v-144l-492 -712q-12 -17 -33 -42t-36 -41l-15 -16q90 15 131 15h455z" />
    <glyph glyph-name="braceleft" unicode="{" horiz-adv-x="663" 
d="M623 -317h-164q-93 0 -159.5 70t-66.5 198v358q0 50 -19 90.5t-49 64.5t-62 37t-62 15v152q68 4 130 58.5t62 147.5v363q0 125 67 194.5t159 69.5h164v-151h-101q-38 0 -63 -13t-36.5 -37.5t-15.5 -48.5t-4 -57v-354q0 -63 -19.5 -111.5t-50.5 -74t-59 -38.5t-55 -18
l-2 -14q23 -2 45 -8.5t48.5 -23.5t46 -42t33 -68t13.5 -98v-352q0 -33 4 -57.5t15.5 -49.5t36.5 -39t63 -14h101v-149z" />
    <glyph glyph-name="bar" unicode="|" horiz-adv-x="514" 
d="M340 -424h-166v1974h166v-1974z" />
    <glyph glyph-name="braceright" unicode="}" horiz-adv-x="663" 
d="M623 516q-70 -4 -131.5 -57.5t-61.5 -149.5v-360q0 -127 -66.5 -196.5t-160.5 -69.5h-162v149h98q38 0 63.5 14t37 39t16 50t4.5 57v350q0 56 13 99.5t32.5 68.5t46 42t48.5 23.5t46 8.5v14q-23 4 -45.5 12t-49 26.5t-46 44t-32.5 67t-13 92.5v354q0 33 -4.5 57.5
t-16 48.5t-37 37t-63.5 13h-98v151h164q90 0 157.5 -70.5t67.5 -195.5v-361q0 -94 62 -148t131 -58v-152z" />
    <glyph glyph-name="asciitilde" unicode="~" horiz-adv-x="1171" 
d="M1049 643q-24 -39 -44.5 -66.5t-51 -56.5t-69 -44t-83.5 -15q-32 0 -70 10t-63 20.5t-69 30.5l-3 1.5l-3 1.5t-3.5 1.5t-3.5 1.5q-8 4 -54 26t-63 29t-50.5 16t-60.5 9q-57 0 -97.5 -37.5t-76.5 -101.5l-61 135q24 39 44.5 65.5t51 55.5t69 44t83.5 15q34 0 75 -11.5
t62 -20.5t76 -33q18 -8 56 -27t59.5 -28t53 -18t58.5 -9q58 0 97.5 37.5t78.5 103.5z" />
    <glyph glyph-name="uni00A0" unicode="&#xa0;" horiz-adv-x="512" 
 />
    <glyph glyph-name="exclamdown" unicode="&#xa1;" horiz-adv-x="575" 
d="M406 -352l-236 -35l47 1014h141zM422 936q0 -57 -40 -97t-97 -40q-55 0 -93 39.5t-38 95.5q0 58 38.5 97.5t94.5 39.5t95.5 -39t39.5 -96z" />
    <glyph glyph-name="cent" unicode="&#xa2;" horiz-adv-x="944" 
d="M872 113q-56 -56 -113 -87.5t-136 -41.5v-179h-127v179q-190 18 -279 149q-104 145 -104 371q0 300 182 457q85 75 199 92v170h129v-170q68 -6 115 -31t106 -74l-96 -125q-48 54 -125 74v-770q99 24 155 100zM496 127v772q-40 -17 -75.5 -53t-53.5 -74q-52 -110 -52 -280
q0 -152 47.5 -245t133.5 -120z" />
    <glyph glyph-name="sterling" unicode="&#xa3;" horiz-adv-x="1187" 
d="M1126 1350l-137 -148q-98 92 -209 92q-258 0 -258 -327v-148h326v-151h-326v-494h508v-174h-928v174h211v494h-196v151h196v166q0 231 124 360.5t333 129.5q220 0 356 -125z" />
    <glyph glyph-name="currency" unicode="&#xa4;" horiz-adv-x="1280" 
d="M1198 57q-150 -77 -319 -77q-274 0 -439 210q-95 124 -131 283h-227v154h207q-2 23 -2 67q0 32 4 94h-209v154h233q25 98 64 172q79 152 212.5 238t295.5 86q155 0 284 -70l-34 -170q-112 82 -250 82q-104 0 -184 -52t-130 -151q-30 -59 -45 -135h498v-154h-518
q-2 -29 -2 -90q0 -13 1 -36.5t1 -34.5h518v-154h-502q11 -55 33 -106q48 -114 139 -172t207 -58q147 0 260 88z" />
    <glyph glyph-name="yen" unicode="&#xa5;" horiz-adv-x="1101" 
d="M1102 1413l-332 -622h279v-142h-351l-47 -86v-112h398v-140h-398v-311h-205v311h-378v140h378v116l-45 82h-333v142h264l-332 622h242l233 -481q45 -91 78 -182q54 123 82 180l237 483h230z" />
    <glyph glyph-name="brokenbar" unicode="&#xa6;" horiz-adv-x="514" 
d="M340 709h-166v841h166v-841zM340 -424h-166v842h166v-842z" />
    <glyph glyph-name="section" unicode="&#xa7;" horiz-adv-x="1136" 
d="M1024 580q0 -87 -49 -157t-133 -114q137 -98 137 -254q0 -88 -39 -158t-104 -111.5t-141.5 -63t-157.5 -21.5q-94 0 -173 24t-145.5 81t-105.5 143l184 88q25 -83 92 -123.5t158 -40.5q39 0 75 9.5t66.5 28.5t49 52t18.5 76q0 36 -16.5 65.5t-49 52.5t-61.5 38t-74 35
q-16 7 -23 10q-144 66 -245 129q-142 91 -142 249q0 101 52 172t153 125q-155 90 -155 242q0 80 35 145t93 105t128.5 61t146.5 21q125 0 230 -47t157 -148l-180 -100q-25 60 -82 91.5t-125 31.5q-78 0 -134 -40t-56 -118q0 -101 102 -147q12 -5 102 -48t103 -49
q42 -20 63.5 -31t59.5 -33.5t59.5 -39.5t49 -44t42 -53t25 -61t10.5 -73zM825 543q0 37 -16 68.5t-46.5 56t-56 39.5t-63.5 34l-164 80q-65 -28 -103 -65t-38 -97q0 -23 6 -43.5t13 -35.5t23.5 -30.5t26.5 -24t33.5 -21.5t33 -17.5t36.5 -17.5l197 -94q51 24 84.5 70
t33.5 98z" />
    <glyph glyph-name="dieresis" unicode="&#xa8;" horiz-adv-x="911" 
d="M788 1284q0 -53 -34.5 -91t-83.5 -38q-51 0 -86 38t-35 91t35 90t86 37q48 0 83 -37.5t35 -89.5zM362 1284q0 -53 -34.5 -91t-85.5 -38q-49 0 -84 38t-35 91t35 90t84 37q50 0 85 -37.5t35 -89.5z" />
    <glyph glyph-name="copyright" unicode="&#xa9;" horiz-adv-x="1734" 
d="M1622 727q0 -210 -102.5 -385.5t-276.5 -276t-377 -100.5q-204 0 -377 100.5t-274.5 276t-101.5 385.5t101.5 385.5t274.5 276t377 100.5q203 0 377 -100.5t276.5 -276t102.5 -385.5zM1475 727q0 132 -48 250.5t-130 203t-194.5 134t-236.5 49.5q-167 0 -306 -84
t-219.5 -230.5t-80.5 -322.5q0 -175 80.5 -322t220 -232t305.5 -85t306 85t221.5 232t81.5 322zM666 731q0 -332 223 -332q84 0 151 56l68 -90q-101 -76 -234 -76q-168 0 -266 121t-98 305q0 154 55 258q47 92 130.5 144t183.5 52q135 0 211 -67l-64 -92q-67 47 -145 47
q-111 0 -163 -90t-52 -236z" />
    <glyph glyph-name="ordfeminine" unicode="&#xaa;" horiz-adv-x="829" 
d="M424 1456q-38 0 -84.5 -13.5t-85.5 -33.5t-68 -41l-63 105q32 19 45 26t50 25t65.5 26t72.5 15.5t90 7.5q74 0 129.5 -25.5t81.5 -72.5q19 -35 25 -72.5t4 -99.5l-6 -281q-2 -79 9.5 -115t51.5 -61l-71 -96q-78 31 -103 114q-32 -36 -60 -57.5t-68.5 -35t-92.5 -13.5
q-117 0 -182.5 60t-65.5 167q0 132 99.5 200t287.5 68h58v52q0 83 -23 112q-33 39 -96 39zM748 485h-666v117h666v-117zM539 1159q-24 6 -45 6q-147 0 -203 -53q-41 -38 -41 -117q0 -64 32 -99.5t91 -35.5q48 0 91.5 28.5t72.5 74.5z" />
    <glyph glyph-name="guillemotleft" unicode="&#xab;" horiz-adv-x="1034" 
d="M952 133l-127 -86l-299 453l299 454l127 -88l-235 -366zM528 133l-127 -86l-299 453l299 454l127 -88l-235 -366z" />
    <glyph glyph-name="logicalnot" unicode="&#xac;" horiz-adv-x="1062" 
d="M950 147h-186v287h-651v166h837v-453z" />
    <glyph glyph-name="uni00AD" unicode="&#xad;" horiz-adv-x="620" 
d="M518 461h-416v186h416v-186z" />
    <glyph glyph-name="registered" unicode="&#xae;" horiz-adv-x="1734" 
d="M1622 727q0 -210 -102.5 -385.5t-276.5 -276t-377 -100.5q-204 0 -377 100.5t-274.5 276t-101.5 385.5t101.5 385.5t274.5 276t377 100.5q203 0 377 -100.5t276.5 -276t102.5 -385.5zM1475 727q0 132 -48 250.5t-130 203t-194.5 134t-236.5 49.5q-167 0 -306 -84
t-219.5 -230.5t-80.5 -322.5q0 -175 80.5 -322t220 -232t305.5 -85t306 85t221.5 232t81.5 322zM1204 303h-168l-73 133q-76 139 -146 209q-25 25 -55 27v-369h-139v852h260q136 0 206 -69t70 -175q0 -100 -58.5 -166.5t-152.5 -66.5q37 -19 131 -170zM1012 909
q0 66 -40 98.5t-132 32.5h-78v-270h74q100 0 137 37q39 39 39 102z" />
    <glyph glyph-name="macron" unicode="&#xaf;" horiz-adv-x="698" 
d="M637 1386h-576v130h576v-130z" />
    <glyph glyph-name="degree" unicode="&#xb0;" horiz-adv-x="835" 
d="M754 1075q0 -157 -92.5 -250.5t-243.5 -93.5q-158 0 -247 93t-89 255q0 159 91 252.5t241 93.5q160 0 250 -93t90 -257zM596 1067q0 131 -44 186.5t-136 55.5q-176 0 -176 -222q0 -130 43.5 -184.5t136.5 -54.5q176 0 176 219z" />
    <glyph glyph-name="plusminus" unicode="&#xb1;" horiz-adv-x="1005" 
d="M903 586h-307v-291h-186v291h-308v176h308v278h186v-278h307v-176zM899 63h-793v177h793v-177z" />
    <glyph glyph-name="uni00B2" unicode="&#xb2;" horiz-adv-x="737" 
d="M655 639l-34 -127h-521v96q80 57 195 178q170 178 170 293q0 55 -32.5 87t-82.5 32q-15 0 -29.5 -2t-31 -8t-26 -9.5t-28 -14.5t-23.5 -13.5t-26.5 -17t-23.5 -15.5l-80 86q156 129 305 129q107 0 178.5 -68t71.5 -169q0 -51 -18 -101t-56 -100.5t-65.5 -81t-77.5 -80.5
q-40 -40 -105 -96q8 0 28 1t28 1h284z" />
    <glyph glyph-name="uni00B3" unicode="&#xb3;" horiz-adv-x="741" 
d="M190 584q78 0 141.5 17t109.5 62t46 113q0 37 -20 65t-55 38q-36 10 -133 10h-46v121h31h23.5h27t26.5 1t28 2.5t25.5 5t25 8t20 12t17.5 17t10 22t4 28.5q0 44 -30.5 70t-84.5 26q-81 0 -192 -78l-82 93q58 52 137 84t156 32q112 0 187 -60.5t75 -154.5
q0 -117 -107 -172q60 -27 94.5 -73t34.5 -107q0 -83 -56 -150t-146 -104q-95 -39 -240 -39q-59 0 -88 4l-39 119q71 -12 100 -12z" />
    <glyph glyph-name="acute" unicode="&#xb4;" horiz-adv-x="688" 
d="M596 1362l-444 -209l-60 111l412 272z" />
    <glyph glyph-name="uni00B5" unicode="&#xb5;" horiz-adv-x="1120" 
d="M1010 72l-127 -101q-39 30 -61.5 63.5t-35.5 84.5q-121 -148 -309 -148q-67 0 -112 43q8 -39 8 -100v-301l-199 -45v1452l188 39v-713q0 -78 10 -115.5t38 -62.5q49 -45 118 -45t135.5 46.5t98.5 115.5v731l184 37v-752q0 -105 29 -178q12 -31 35 -51z" />
    <glyph glyph-name="paragraph" unicode="&#xb6;" horiz-adv-x="1208" 
d="M1034 -256h-145v1581h-248v-1581h-147v930q-193 0 -313 106.5t-120 268.5q0 196 123.5 299.5t339.5 103.5h510v-1708z" />
    <glyph glyph-name="periodcentered" unicode="&#xb7;" horiz-adv-x="575" 
d="M432 569q0 -63 -42.5 -108t-102.5 -45t-102 45t-42 108q0 64 42 108t102 44t102.5 -44t42.5 -108z" />
    <glyph glyph-name="cedilla" unicode="&#xb8;" horiz-adv-x="569" 
d="M467 -231q0 -69 -54.5 -122t-148.5 -53q-73 0 -162 50l45 98q71 -31 115 -31q29 0 50.5 17.5t21.5 44.5q0 28 -22 44.5t-54 16.5q-21 0 -63 -6l2 43l39 154l118 -15l-26 -90q139 -18 139 -151z" />
    <glyph glyph-name="uni00B9" unicode="&#xb9;" horiz-adv-x="655" 
d="M573 512h-403v127h129v496q-64 -41 -178 -78l-39 88l260 174h111v-680h120v-127z" />
    <glyph glyph-name="ordmasculine" unicode="&#xba;" horiz-adv-x="829" 
d="M745 1153q0 -182 -89.5 -288.5t-241.5 -106.5q-154 0 -243 108t-89 295q0 185 88.5 293.5t239.5 108.5q110 0 187 -55t112.5 -146t35.5 -209zM580 1147q0 162 -43 227.5t-127 65.5q-87 0 -124.5 -62.5t-37.5 -199.5q0 -164 40 -230.5t128 -66.5q164 0 164 266zM748 485
h-666v117h666v-117z" />
    <glyph glyph-name="guillemotright" unicode="&#xbb;" horiz-adv-x="1034" 
d="M932 500l-299 -453l-127 86l237 367l-237 366l127 88zM508 500l-299 -453l-127 86l240 367l-240 366l127 88z" />
    <glyph glyph-name="onequarter" unicode="&#xbc;" horiz-adv-x="1955" 
d="M1591 1565l-1073 -1878h-149l1071 1878h151zM1874 145h-86l-12 2q0 -3 1 -12.5t1 -13.5v-129l-152 -33v164q0 3 1 11.5t1 12.5q-4 0 -13 -1t-13 -1h-340v105l286 559h168q-4 -9 -44 -90t-73 -148t-80 -155.5t-81 -145.5l26 2h152l12 -2q-2 22 -2 31.5t2.5 33.5t3.5 36
l17 204l129 33v-295q0 -6 -2 -21.5t-2 -21.5l12 2h88v-127zM573 512h-403v127h129v496q-64 -41 -178 -78l-39 88l260 174h111v-680h120v-127z" />
    <glyph glyph-name="onehalf" unicode="&#xbd;" horiz-adv-x="1918" 
d="M1550 1565l-1073 -1878h-149l1071 1878h151zM1837 127l-35 -127h-520v96q80 57 195 178q170 178 170 293q0 55 -32.5 87t-82.5 32q-14 0 -28 -2.5t-24.5 -4.5t-25.5 -9t-22.5 -10t-24 -13t-21 -12.5t-22.5 -14.5l-21 -14l-79 86q156 129 305 129q107 0 178.5 -68
t71.5 -169q0 -51 -18 -101t-56 -100.5t-65.5 -81t-77.5 -80.5q-40 -40 -105 -96q8 0 27.5 1t27.5 1h285zM573 512h-403v127h129v496q-64 -41 -178 -78l-39 88l260 174h111v-680h120v-127z" />
    <glyph glyph-name="threequarters" unicode="&#xbe;" horiz-adv-x="2043" 
d="M1673 1565l-1073 -1878h-149l1071 1878h151zM1962 145h-86l-12 2q0 -3 1 -12.5t1 -13.5v-129l-152 -33v164q0 3 1 11.5t1 12.5q-4 0 -13 -1t-13 -1h-340v105l286 559h168q-4 -9 -44 -90t-73 -148t-80 -155.5t-81 -145.5l26 2h152l12 -2q-2 22 -2 31.5t2.5 33.5t3.5 36
l17 204l129 33v-295q0 -6 -2 -21.5t-2 -21.5l12 2h88v-127zM190 584q78 0 141.5 17t109.5 62t46 113q0 37 -20 65t-55 38q-36 10 -133 10h-46v121h31h23.5h27t26.5 1t28 2.5t25.5 5t25 8t20 12t17.5 17t10 22t4 28.5q0 44 -30.5 70t-84.5 26q-81 0 -192 -78l-82 93
q58 52 137 84t156 32q112 0 187 -60.5t75 -154.5q0 -117 -107 -172q60 -27 94.5 -73t34.5 -107q0 -83 -56 -150t-146 -104q-95 -39 -240 -39q-59 0 -88 4l-39 119q71 -12 100 -12z" />
    <glyph glyph-name="questiondown" unicode="&#xbf;" horiz-adv-x="892" 
d="M811 -256q-66 -56 -165.5 -93.5t-209.5 -37.5q-147 0 -240.5 84.5t-93.5 226.5q0 52 15.5 100t34.5 79t50.5 62.5t48.5 44.5t42 31q7 5 10 7q57 41 91 102.5t34 132.5q0 57 -8 103h162q0 -1 3 -15.5t5.5 -28.5t5 -36.5t2.5 -42.5q0 -95 -39.5 -170.5t-97.5 -120.5
q-52 -40 -74.5 -59t-49.5 -48t-36.5 -56.5t-9.5 -61.5q0 -78 52 -124t132 -46q59 0 134 26.5t120 65.5zM623 926q0 -59 -42 -101.5t-102 -42.5q-58 0 -99.5 42.5t-41.5 101.5q0 61 41 103t100 42t101.5 -42t42.5 -103z" />
    <glyph glyph-name="Agrave" unicode="&#xc0;" horiz-adv-x="1163" 
d="M1163 0h-221l-125 399h-489l-123 -399h-205l463 1413h246zM774 563q-19 49 -97.5 320.5t-92.5 333.5h-13q-16 -63 -96 -334t-98 -320h397zM762 1591l-57 -110l-445 209l90 174z" />
    <glyph glyph-name="Aacute" unicode="&#xc1;" horiz-adv-x="1163" 
d="M1163 0h-221l-125 399h-489l-123 -399h-205l463 1413h246zM774 563q-19 49 -97.5 320.5t-92.5 333.5h-13q-16 -63 -96 -334t-98 -320h397zM913 1690l-444 -209l-59 110l411 273z" />
    <glyph glyph-name="Acircumflex" unicode="&#xc2;" horiz-adv-x="1163" 
d="M1163 0h-221l-125 399h-489l-123 -399h-205l463 1413h246zM774 563q-19 49 -97.5 320.5t-92.5 333.5h-13q-16 -63 -96 -334t-98 -320h397zM938 1575l-74 -105l-282 177l-275 -177l-65 105l346 283z" />
    <glyph glyph-name="Atilde" unicode="&#xc3;" horiz-adv-x="1163" 
d="M1163 0h-221l-125 399h-489l-123 -399h-205l463 1413h246zM774 563q-19 49 -97.5 320.5t-92.5 333.5h-13q-16 -63 -96 -334t-98 -320h397zM926 1665q-55 -70 -107.5 -102.5t-134.5 -32.5q-42 0 -77.5 13.5t-57 29.5t-55.5 29.5t-74 13.5q-43 0 -71 -18.5t-64 -59.5
l-64 107q54 70 105.5 101.5t134.5 31.5q42 0 77.5 -13t57 -29t55.5 -29t74 -13q43 0 71.5 18.5t65.5 59.5z" />
    <glyph glyph-name="Adieresis" unicode="&#xc4;" horiz-adv-x="1163" 
d="M1163 0h-221l-125 399h-489l-123 -399h-205l463 1413h246zM774 563q-19 49 -97.5 320.5t-92.5 333.5h-13q-16 -63 -96 -334t-98 -320h397zM918 1612q0 -53 -35 -91t-84 -38q-51 0 -86 38t-35 91t35 90t86 37q48 0 83.5 -37.5t35.5 -89.5zM494 1612q0 -53 -35 -91t-86 -38
q-49 0 -84 38t-35 91t35 90t84 37q50 0 85.5 -37.5t35.5 -89.5z" />
    <glyph glyph-name="Aring" unicode="&#xc5;" horiz-adv-x="1163" 
d="M1163 0h-221l-125 399h-489l-123 -399h-205l463 1413h246zM791 1679q0 -88 -62.5 -152.5t-148.5 -64.5q-84 0 -144.5 64.5t-60.5 152.5q0 89 62 153t147 64t146 -64t61 -153zM774 563q-19 49 -97.5 320.5t-92.5 333.5h-13q-16 -63 -96 -334t-98 -320h397zM705 1679
q0 53 -35.5 91t-83.5 38q-54 0 -90.5 -37.5t-36.5 -91.5q0 -53 36 -91t85 -38q51 0 88 38t37 91z" />
    <glyph glyph-name="AE" unicode="&#xc6;" horiz-adv-x="1726" 
d="M1665 0h-788v401h-463l-238 -401h-217l854 1405h832l-27 -162h-543v-426h455v-166h-453v-481h588v-170zM881 1186l-13 4q-333 -580 -362 -627h371v395z" />
    <glyph glyph-name="Ccedilla" unicode="&#xc7;" horiz-adv-x="1208" 
d="M592 -6q-216 53 -337.5 242t-121.5 460q0 239 92 418q79 152 212 237t296 85q206 0 346 -109l-96 -129q-115 82 -250 82q-194 0 -301 -178q-80 -135 -80 -402q0 -120 11.5 -195t39.5 -138q48 -112 139.5 -170t205.5 -58q136 0 262 88l96 -129q-165 -118 -395 -118
l-23 -66q141 -19 141 -150q0 -67 -54.5 -118.5t-147.5 -51.5q-75 0 -164 50l45 96q71 -31 115 -31q29 0 51 17.5t22 42.5q0 28 -22 43.5t-53 15.5q-11 0 -29.5 -4t-22.5 -4l-16 24z" />
    <glyph glyph-name="Egrave" unicode="&#xc8;" horiz-adv-x="1046" 
d="M985 0h-790v1411h768l-27 -162h-543v-430h455v-166h-453v-483h590v-170zM817 1591l-57 -110l-445 209l91 174z" />
    <glyph glyph-name="Eacute" unicode="&#xc9;" horiz-adv-x="1046" 
d="M985 0h-790v1411h768l-27 -162h-543v-430h455v-166h-453v-483h590v-170zM868 1690l-444 -209l-59 110l411 273z" />
    <glyph glyph-name="Ecircumflex" unicode="&#xca;" horiz-adv-x="1046" 
d="M985 0h-790v1411h768l-27 -162h-543v-430h455v-166h-453v-483h590v-170zM944 1575l-74 -105l-282 177l-275 -177l-65 105l346 283z" />
    <glyph glyph-name="Edieresis" unicode="&#xcb;" horiz-adv-x="1046" 
d="M985 0h-790v1411h768l-27 -162h-543v-430h455v-166h-453v-483h590v-170zM930 1612q0 -53 -35 -91t-84 -38q-51 0 -86 38t-35 91t35 90t86 37q48 0 83.5 -37.5t35.5 -89.5zM504 1612q0 -53 -35 -91t-86 -38q-49 0 -84 38t-35 91t35 90t84 37q50 0 85.5 -37.5t35.5 -89.5z
" />
    <glyph glyph-name="Igrave" unicode="&#xcc;" horiz-adv-x="589" 
d="M395 0h-200v1411h200v-1411zM471 1599l-57 -110l-445 209l90 174z" />
    <glyph glyph-name="Iacute" unicode="&#xcd;" horiz-adv-x="589" 
d="M395 0h-200v1411h200v-1411zM633 1698l-445 -209l-59 110l412 273z" />
    <glyph glyph-name="Icircumflex" unicode="&#xce;" horiz-adv-x="589" 
d="M395 0h-200v1411h200v-1411zM643 1583l-74 -104l-282 176l-275 -176l-65 104l346 283z" />
    <glyph glyph-name="Idieresis" unicode="&#xcf;" horiz-adv-x="589" 
d="M395 0h-200v1411h200v-1411zM629 1616q0 -53 -35 -91t-84 -38q-51 0 -86 38t-35 91t35 90t86 37q48 0 83.5 -37.5t35.5 -89.5zM203 1616q0 -53 -35 -91t-86 -38q-49 0 -84 38t-35 91t35 90t84 37q50 0 85.5 -37.5t35.5 -89.5z" />
    <glyph glyph-name="Eth" unicode="&#xd0;" horiz-adv-x="1308" 
d="M1176 705q0 -323 -154 -515q-77 -97 -187 -143.5t-288 -46.5h-352v647h-168v141h168v623h327q189 0 312 -51.5t217 -181.5q125 -174 125 -473zM956 680q0 160 -22.5 266.5t-81.5 181.5q-57 71 -124 98t-173 27h-160v-465h297l-49 -141h-248v-485h156q125 0 204.5 36.5
t125.5 120.5q75 138 75 361z" />
    <glyph glyph-name="Ntilde" unicode="&#xd1;" horiz-adv-x="1329" 
d="M1135 0h-211l-371 750q-132 266 -172 387l-12 -2q12 -148 16 -394l8 -741h-198v1411h229l393 -778q40 -80 85 -191.5t54 -146.5l13 4q-21 215 -21 420l-4 692h191v-1411zM1018 1665q-55 -70 -107.5 -102.5t-134.5 -32.5q-42 0 -77.5 13.5t-57 29.5t-55.5 29.5t-74 13.5
q-43 0 -71 -18.5t-64 -59.5l-64 107q54 70 105.5 101.5t134.5 31.5q42 0 77.5 -13t57 -29t55.5 -29t74 -13q43 0 71.5 18.5t65.5 59.5z" />
    <glyph glyph-name="Ograve" unicode="&#xd2;" 
d="M1284 696q0 -216 -67 -378t-196.5 -251.5t-305.5 -89.5q-143 0 -254.5 55t-182.5 153.5t-108 231.5t-37 294q0 344 154.5 534.5t417.5 190.5q121 0 219.5 -39.5t164.5 -107.5t110.5 -163t64.5 -202t20 -228zM1059 678q0 301 -81 452.5t-273 151.5q-184 0 -267.5 -136
t-83.5 -413q0 -112 11 -201.5t37 -166.5t66.5 -128.5t103 -80.5t143.5 -29q169 0 256.5 132t87.5 419zM940 1591l-57 -110l-445 209l90 174z" />
    <glyph glyph-name="Oacute" unicode="&#xd3;" 
d="M1284 696q0 -216 -67 -378t-196.5 -251.5t-305.5 -89.5q-143 0 -254.5 55t-182.5 153.5t-108 231.5t-37 294q0 344 154.5 534.5t417.5 190.5q121 0 219.5 -39.5t164.5 -107.5t110.5 -163t64.5 -202t20 -228zM1059 678q0 301 -81 452.5t-273 151.5q-184 0 -267.5 -136
t-83.5 -413q0 -112 11 -201.5t37 -166.5t66.5 -128.5t103 -80.5t143.5 -29q169 0 256.5 132t87.5 419zM985 1698l-444 -209l-60 110l412 273z" />
    <glyph glyph-name="Ocircumflex" unicode="&#xd4;" 
d="M1284 696q0 -216 -67 -378t-196.5 -251.5t-305.5 -89.5q-143 0 -254.5 55t-182.5 153.5t-108 231.5t-37 294q0 344 154.5 534.5t417.5 190.5q121 0 219.5 -39.5t164.5 -107.5t110.5 -163t64.5 -202t20 -228zM1059 678q0 301 -81 452.5t-273 151.5q-184 0 -267.5 -136
t-83.5 -413q0 -112 11 -201.5t37 -166.5t66.5 -128.5t103 -80.5t143.5 -29q169 0 256.5 132t87.5 419zM1059 1575l-74 -105l-283 177l-274 -177l-66 105l347 283z" />
    <glyph glyph-name="Otilde" unicode="&#xd5;" 
d="M1284 696q0 -216 -67 -378t-196.5 -251.5t-305.5 -89.5q-143 0 -254.5 55t-182.5 153.5t-108 231.5t-37 294q0 344 154.5 534.5t417.5 190.5q121 0 219.5 -39.5t164.5 -107.5t110.5 -163t64.5 -202t20 -228zM1059 678q0 301 -81 452.5t-273 151.5q-184 0 -267.5 -136
t-83.5 -413q0 -112 11 -201.5t37 -166.5t66.5 -128.5t103 -80.5t143.5 -29q169 0 256.5 132t87.5 419zM1049 1665q-55 -70 -107.5 -102.5t-134.5 -32.5q-42 0 -77.5 13.5t-57 29.5t-55.5 29.5t-74 13.5q-43 0 -71 -18.5t-64 -59.5l-64 107q54 70 105.5 101.5t134.5 31.5
q42 0 77.5 -13t57 -29t55.5 -29t74 -13q43 0 71.5 18.5t65.5 59.5z" />
    <glyph glyph-name="Odieresis" unicode="&#xd6;" 
d="M1284 696q0 -216 -67 -378t-196.5 -251.5t-305.5 -89.5q-143 0 -254.5 55t-182.5 153.5t-108 231.5t-37 294q0 344 154.5 534.5t417.5 190.5q121 0 219.5 -39.5t164.5 -107.5t110.5 -163t64.5 -202t20 -228zM1059 678q0 301 -81 452.5t-273 151.5q-184 0 -267.5 -136
t-83.5 -413q0 -112 11 -201.5t37 -166.5t66.5 -128.5t103 -80.5t143.5 -29q169 0 256.5 132t87.5 419zM1036 1612q0 -53 -34.5 -91t-83.5 -38q-51 0 -86 38t-35 91t35 90t86 37q48 0 83 -37.5t35 -89.5zM612 1612q0 -53 -34.5 -91t-85.5 -38q-49 0 -84 38t-35 91t35 90
t84 37q50 0 85 -37.5t35 -89.5z" />
    <glyph glyph-name="multiply" unicode="&#xd7;" horiz-adv-x="1157" 
d="M983 272l-123 -122l-280 280l-275 -276l-127 127l277 274l-281 281l123 122l281 -280l274 276l127 -127l-277 -274z" />
    <glyph glyph-name="Oslash" unicode="&#xd8;" 
d="M1284 694q0 -215 -61 -363t-183 -247q-72 -59 -148.5 -85t-176.5 -26q-180 0 -314 90l-137 -235l-110 66l153 256q-174 209 -174 559q0 231 76.5 402t214.5 253q119 70 281 70q177 0 315 -88l125 215l112 -66l-141 -238q84 -114 126 -237t42 -326zM928 1194
q-92 86 -223 86q-91 0 -167.5 -41.5t-111.5 -110.5q-72 -141 -72 -399q0 -232 58 -403zM1059 676q0 239 -53 393l-517 -864q43 -37 104.5 -59.5t121.5 -22.5q165 0 252 125q47 70 69.5 170t22.5 258z" />
    <glyph glyph-name="Ugrave" unicode="&#xd9;" horiz-adv-x="1318" 
d="M1135 442q0 -133 -13.5 -186.5t-60.5 -112.5q-136 -166 -406 -166q-316 0 -426 197q-28 50 -36.5 96.5t-8.5 155.5v985h199v-911q0 -217 51 -275q69 -80 223 -80q159 0 230 93q51 66 51 233v940h197v-969zM858 1591l-57 -110l-445 209l90 174z" />
    <glyph glyph-name="Uacute" unicode="&#xda;" horiz-adv-x="1318" 
d="M1135 442q0 -133 -13.5 -186.5t-60.5 -112.5q-136 -166 -406 -166q-316 0 -426 197q-28 50 -36.5 96.5t-8.5 155.5v985h199v-911q0 -217 51 -275q69 -80 223 -80q159 0 230 93q51 66 51 233v940h197v-969zM930 1690l-445 -209l-59 110l412 273z" />
    <glyph glyph-name="Ucircumflex" unicode="&#xdb;" horiz-adv-x="1318" 
d="M1135 442q0 -133 -13.5 -186.5t-60.5 -112.5q-136 -166 -406 -166q-316 0 -426 197q-28 50 -36.5 96.5t-8.5 155.5v985h199v-911q0 -217 51 -275q69 -80 223 -80q159 0 230 93q51 66 51 233v940h197v-969zM1014 1575l-74 -105l-283 177l-274 -177l-66 105l347 283z" />
    <glyph glyph-name="Udieresis" unicode="&#xdc;" horiz-adv-x="1318" 
d="M1135 442q0 -133 -13.5 -186.5t-60.5 -112.5q-136 -166 -406 -166q-316 0 -426 197q-28 50 -36.5 96.5t-8.5 155.5v985h199v-911q0 -217 51 -275q69 -80 223 -80q159 0 230 93q51 66 51 233v940h197v-969zM993 1612q0 -53 -35 -91t-84 -38q-51 0 -85.5 38t-34.5 91
t34.5 90t85.5 37q48 0 83.5 -37.5t35.5 -89.5zM567 1612q0 -53 -35 -91t-86 -38q-49 0 -83.5 38t-34.5 91t34.5 90t83.5 37q50 0 85.5 -37.5t35.5 -89.5z" />
    <glyph glyph-name="Yacute" unicode="&#xdd;" horiz-adv-x="1040" 
d="M1071 1411l-450 -850v-561h-205v565l-447 846h242l233 -481q45 -91 78 -182q54 123 82 180l238 483h229zM825 1698l-444 -209l-59 110l411 273z" />
    <glyph glyph-name="Thorn" unicode="&#xde;" horiz-adv-x="1155" 
d="M1094 795q0 -122 -39.5 -207t-132.5 -156q-58 -44 -124 -65t-173 -21h-234v-346h-196v1411h196v-207h180q134 0 206 -14.5t130 -50.5q187 -117 187 -344zM874 772q0 142 -73 206t-226 64h-184v-536h221q140 0 203 80q59 74 59 186z" />
    <glyph glyph-name="germandbls" unicode="&#xdf;" horiz-adv-x="2228" 
d="M1642 137q103 0 174.5 41.5t71.5 120.5q0 60 -45.5 98t-148.5 66l-156 41q-115 30 -192.5 106.5t-77.5 188.5q0 146 117 237.5t301 91.5q108 0 215.5 -29t179.5 -79l-90 -141q-146 88 -297 88q-96 0 -154.5 -38.5t-58.5 -103.5q0 -52 40 -84t134 -57l149 -39
q301 -78 301 -311q0 -91 -49 -169t-135 -124q-119 -64 -289 -64q-220 0 -405 99l73 151q170 -90 342 -90zM539 137q102 0 173.5 42t71.5 120q0 60 -45.5 98t-148.5 66l-156 41q-115 30 -192.5 106.5t-77.5 188.5q0 146 117 237.5t301 91.5q108 0 215.5 -29t179.5 -79
l-90 -141q-146 88 -297 88q-96 0 -154.5 -38.5t-58.5 -103.5q0 -52 40 -84t134 -57l149 -39q301 -78 301 -311q0 -91 -49 -169t-135 -124q-119 -64 -289 -64q-220 0 -405 99l74 151q170 -90 342 -90z" />
    <glyph glyph-name="agrave" unicode="&#xe0;" horiz-adv-x="1079" 
d="M1059 0h-215l-105 287h-411l-105 -287h-203l410 1102h227zM719 1264l-62 -111l-458 205l96 172zM696 442l-159 496l-160 -496h319z" />
    <glyph glyph-name="aacute" unicode="&#xe1;" horiz-adv-x="1079" 
d="M1059 0h-215l-105 287h-411l-105 -287h-203l410 1102h227zM696 442l-159 496l-160 -496h319zM874 1362l-444 -209l-59 111l411 272z" />
    <glyph glyph-name="acircumflex" unicode="&#xe2;" horiz-adv-x="1079" 
d="M1059 0h-215l-105 287h-411l-105 -287h-203l410 1102h227zM887 1247l-74 -104l-283 176l-274 -176l-66 104l347 283zM696 442l-159 496l-160 -496h319z" />
    <glyph glyph-name="atilde" unicode="&#xe3;" horiz-adv-x="1079" 
d="M1059 0h-215l-105 287h-411l-105 -287h-203l410 1102h227zM895 1337q-55 -70 -107.5 -102.5t-134.5 -32.5q-42 0 -77.5 13.5t-57 29.5t-55.5 29.5t-74 13.5q-43 0 -71 -18.5t-64 -59.5l-64 107q54 70 105.5 101.5t134.5 31.5q42 0 77.5 -13t57 -29t55.5 -29t74 -13
q43 0 71.5 18.5t65.5 59.5zM696 442l-159 496l-160 -496h319z" />
    <glyph glyph-name="adieresis" unicode="&#xe4;" horiz-adv-x="1079" 
d="M1059 0h-215l-105 287h-411l-105 -287h-203l410 1102h227zM696 442l-159 496l-160 -496h319zM877 1284q0 -51 -35 -87t-84 -36q-51 0 -87 36t-36 87q0 49 36 84t87 35q50 0 84.5 -34.5t34.5 -84.5zM453 1284q0 -51 -34 -87t-85 -36t-86 36t-35 87q0 49 35.5 84t85.5 35
t84.5 -34.5t34.5 -84.5z" />
    <glyph glyph-name="aring" unicode="&#xe5;" horiz-adv-x="1079" 
d="M1059 0h-215l-105 287h-411l-105 -287h-203l410 1102h227zM754 1352q0 -88 -62.5 -152.5t-148.5 -64.5q-84 0 -144.5 64.5t-60.5 152.5q0 89 62 153t147 64t146 -64t61 -153zM696 442l-159 496l-160 -496h319zM668 1352q0 53 -35.5 91t-83.5 38q-54 0 -90.5 -37.5
t-36.5 -91.5q0 -53 36 -91t85 -38q51 0 88 38t37 91z" />
    <glyph glyph-name="ae" unicode="&#xe6;" horiz-adv-x="1519" 
d="M1458 0h-704v287h-381l-180 -287h-213l692 1094h770l-29 -158h-465v-285h391v-157h-387v-326h506v-168zM754 440v494l-291 -494h291z" />
    <glyph glyph-name="ccedilla" unicode="&#xe7;" horiz-adv-x="1075" 
d="M1004 82q-125 -98 -340 -98l-19 -64q139 -18 139 -151q0 -69 -54 -122t-148 -53q-73 0 -162 50l45 98q71 -31 115 -31q29 0 50 17.5t21 44.5q0 28 -22 44.5t-54 16.5q-21 0 -63 -6l2 43l31 123q-192 37 -302 182.5t-110 358.5q0 157 64.5 289t189 214t285.5 82
q87 0 170.5 -23.5t138.5 -64.5l-96 -131q-103 62 -211 62q-86 0 -157 -41t-111 -113q-56 -95 -56 -262q0 -116 19.5 -184t68.5 -123q94 -107 244 -107q110 0 227 70z" />
    <glyph glyph-name="egrave" unicode="&#xe8;" horiz-adv-x="962" 
d="M901 0h-706v1100h688l-27 -162h-465v-285h387v-159h-385v-326h508v-168zM788 1264l-57 -111l-444 209l90 174z" />
    <glyph glyph-name="eacute" unicode="&#xe9;" horiz-adv-x="962" 
d="M901 0h-706v1100h688l-27 -162h-465v-285h387v-159h-385v-326h508v-168zM801 1362l-445 -209l-59 111l412 272z" />
    <glyph glyph-name="ecircumflex" unicode="&#xea;" horiz-adv-x="962" 
d="M901 0h-706v1100h688l-27 -162h-465v-285h387v-159h-385v-326h508v-168zM883 1247l-74 -104l-283 176l-274 -176l-66 104l346 283z" />
    <glyph glyph-name="edieresis" unicode="&#xeb;" horiz-adv-x="962" 
d="M901 0h-706v1100h688l-27 -162h-465v-285h387v-159h-385v-326h508v-168zM874 1294q0 -53 -34.5 -91t-83.5 -38q-51 0 -86 38t-35 91t35 90t86 37q48 0 83 -37.5t35 -89.5zM449 1294q0 -53 -35 -91t-86 -38q-49 0 -84 38t-35 91t35 90t84 37q50 0 85.5 -37.5t35.5 -89.5z
" />
    <glyph glyph-name="igrave" unicode="&#xec;" horiz-adv-x="587" 
d="M393 0h-198v1100h198v-1100zM451 1264l-58 -111l-444 209l90 174z" />
    <glyph glyph-name="iacute" unicode="&#xed;" horiz-adv-x="587" 
d="M393 0h-198v1100h198v-1100zM639 1362l-444 -209l-60 111l412 272z" />
    <glyph glyph-name="icircumflex" unicode="&#xee;" horiz-adv-x="587" 
d="M393 0h-198v1100h198v-1100zM641 1247l-74 -104l-282 176l-275 -176l-65 104l346 283z" />
    <glyph glyph-name="idieresis" unicode="&#xef;" horiz-adv-x="587" 
d="M393 0h-198v1100h198v-1100zM627 1284q0 -53 -35 -91t-84 -38q-51 0 -86 38t-35 91t35 90t86 37q48 0 83.5 -37.5t35.5 -89.5zM201 1284q0 -53 -35 -91t-86 -38q-49 0 -84 38t-35 91t35 90t84 37q50 0 85.5 -37.5t35.5 -89.5z" />
    <glyph glyph-name="eth" unicode="&#xf0;" horiz-adv-x="1200" 
d="M1067 549q0 -101 -24.5 -188t-62 -145t-86.5 -102t-94 -67t-89 -33q-66 -14 -197 -14h-319v487h-148v142h148v471h245q209 0 312 -37q315 -107 315 -514zM852 535q0 73 -9.5 132t-33 111.5t-60.5 87.5t-95 55.5t-134 20.5h-129v-313h301l-49 -142h-252v-327h152
q165 0 237 98t72 277z" />
    <glyph glyph-name="ntilde" unicode="&#xf1;" horiz-adv-x="1224" 
d="M1030 0h-203l-309 549q-27 49 -67 130.5t-67 138.5l-26 56q21 -211 23 -348l8 -526h-194v1100h221l315 -555q28 -50 63.5 -124t57.5 -123l22 -48q-24 207 -26 336l-6 514h188v-1100zM944 1335q-55 -70 -107.5 -102.5t-134.5 -32.5q-42 0 -77.5 13.5t-57 29.5t-55.5 29.5
t-74 13.5q-43 0 -71 -18.5t-64 -59.5l-63 107q54 71 105.5 102t133.5 31q42 0 77.5 -13t57 -29t55.5 -29t74 -13q43 0 72 19t66 59z" />
    <glyph glyph-name="ograve" unicode="&#xf2;" horiz-adv-x="1290" 
d="M1157 547q0 -126 -29 -227.5t-89 -178t-158 -118t-228 -41.5q-166 0 -285 74.5t-177 201.5t-58 293q0 263 136 414t372 151q128 0 227.5 -42.5t162 -119.5t94.5 -179.5t32 -227.5zM936 532q0 73 -5.5 128t-23.5 115t-49.5 98.5t-87.5 64t-133 25.5q-75 0 -136 -30.5
t-93 -84.5q-58 -98 -58 -285q0 -206 70 -330q59 -106 233 -106q71 0 123 24t82 61.5t48 93.5t24 108.5t6 117.5zM831 1264l-57 -111l-444 209l90 174z" />
    <glyph glyph-name="oacute" unicode="&#xf3;" horiz-adv-x="1290" 
d="M1157 547q0 -126 -29 -227.5t-89 -178t-158 -118t-228 -41.5q-166 0 -285 74.5t-177 201.5t-58 293q0 263 136 414t372 151q128 0 227.5 -42.5t162 -119.5t94.5 -179.5t32 -227.5zM936 532q0 73 -5.5 128t-23.5 115t-49.5 98.5t-87.5 64t-133 25.5q-75 0 -136 -30.5
t-93 -84.5q-58 -98 -58 -285q0 -206 70 -330q59 -106 233 -106q71 0 123 24t82 61.5t48 93.5t24 108.5t6 117.5zM903 1362l-444 -209l-60 111l412 272z" />
    <glyph glyph-name="ocircumflex" unicode="&#xf4;" horiz-adv-x="1290" 
d="M1157 547q0 -126 -29 -227.5t-89 -178t-158 -118t-228 -41.5q-166 0 -285 74.5t-177 201.5t-58 293q0 263 136 414t372 151q128 0 227.5 -42.5t162 -119.5t94.5 -179.5t32 -227.5zM936 532q0 73 -5.5 128t-23.5 115t-49.5 98.5t-87.5 64t-133 25.5q-75 0 -136 -30.5
t-93 -84.5q-58 -98 -58 -285q0 -206 70 -330q59 -106 233 -106q71 0 123 24t82 61.5t48 93.5t24 108.5t6 117.5zM993 1247l-73 -104l-283 176l-275 -176l-65 104l346 283z" />
    <glyph glyph-name="otilde" unicode="&#xf5;" horiz-adv-x="1290" 
d="M1157 547q0 -126 -29 -227.5t-89 -178t-158 -118t-228 -41.5q-166 0 -285 74.5t-177 201.5t-58 293q0 263 136 414t372 151q128 0 227.5 -42.5t162 -119.5t94.5 -179.5t32 -227.5zM936 532q0 73 -5.5 128t-23.5 115t-49.5 98.5t-87.5 64t-133 25.5q-75 0 -136 -30.5
t-93 -84.5q-58 -98 -58 -285q0 -206 70 -330q59 -106 233 -106q71 0 123 24t82 61.5t48 93.5t24 108.5t6 117.5zM991 1337q-55 -70 -107 -102.5t-134 -32.5q-42 0 -77.5 13.5t-57 29.5t-56 29.5t-74.5 13.5q-43 0 -71 -18.5t-64 -59.5l-63 107q54 71 105.5 102t133.5 31
q42 0 77.5 -13t57 -29t56 -29t74.5 -13q43 0 71.5 18.5t65.5 59.5z" />
    <glyph glyph-name="odieresis" unicode="&#xf6;" horiz-adv-x="1290" 
d="M1157 547q0 -126 -29 -227.5t-89 -178t-158 -118t-228 -41.5q-166 0 -285 74.5t-177 201.5t-58 293q0 263 136 414t372 151q128 0 227.5 -42.5t162 -119.5t94.5 -179.5t32 -227.5zM936 532q0 73 -5.5 128t-23.5 115t-49.5 98.5t-87.5 64t-133 25.5q-75 0 -136 -30.5
t-93 -84.5q-58 -98 -58 -285q0 -206 70 -330q59 -106 233 -106q71 0 123 24t82 61.5t48 93.5t24 108.5t6 117.5zM971 1290q0 -53 -35 -91t-84 -38q-51 0 -86 38t-35 91t35 90t86 37q48 0 83.5 -37.5t35.5 -89.5zM547 1290q0 -53 -35 -91t-86 -38q-49 0 -84 38t-35 91t35 90
t84 37q50 0 85.5 -37.5t35.5 -89.5z" />
    <glyph glyph-name="divide" unicode="&#xf7;" horiz-adv-x="1239" 
d="M1137 461h-1035v170h1035v-170zM760 121q0 -61 -43 -103.5t-105 -42.5q-60 0 -100.5 42t-40.5 104q0 63 42 107t103 44q59 0 101.5 -44t42.5 -107zM760 973q0 -63 -43 -106.5t-103 -43.5t-101.5 42.5t-41.5 103.5q0 62 42 105.5t103 43.5q59 0 101.5 -42.5t42.5 -102.5z
" />
    <glyph glyph-name="oslash" unicode="&#xf8;" horiz-adv-x="1290" 
d="M1157 547q0 -257 -113 -397q-70 -87 -163 -127.5t-228 -40.5q-157 0 -262 57l-137 -203l-115 76l146 213q-152 165 -152 426q0 263 136 414t372 151q156 0 270 -63l129 192l117 -78l-137 -202q137 -137 137 -418zM817 913q-67 50 -180 50q-75 0 -136 -30.5t-93 -84.5
q-58 -98 -58 -285q0 -162 45 -274zM653 127q79 0 135 29t88 85t46 127t14 164q0 161 -35 261l-422 -621q67 -45 174 -45z" />
    <glyph glyph-name="ugrave" unicode="&#xf9;" horiz-adv-x="1220" 
d="M1036 391q0 -129 -20.5 -190t-77.5 -115q-113 -104 -328 -104q-150 0 -245 47t-138 125q-26 45 -34.5 92.5t-8.5 140.5v713h197v-676q0 -129 16 -168q22 -54 78.5 -83.5t136.5 -29.5q131 0 185 70q24 31 32.5 69.5t8.5 116.5v701h198v-709zM864 1264l-57 -111l-445 209
l91 174z" />
    <glyph glyph-name="uacute" unicode="&#xfa;" horiz-adv-x="1220" 
d="M1036 391q0 -129 -20.5 -190t-77.5 -115q-113 -104 -328 -104q-150 0 -245 47t-138 125q-26 45 -34.5 92.5t-8.5 140.5v713h197v-676q0 -129 16 -168q22 -54 78.5 -83.5t136.5 -29.5q131 0 185 70q24 31 32.5 69.5t8.5 116.5v701h198v-709zM864 1362l-444 -209l-60 111
l412 272z" />
    <glyph glyph-name="ucircumflex" unicode="&#xfb;" horiz-adv-x="1220" 
d="M1036 391q0 -129 -20.5 -190t-77.5 -115q-113 -104 -328 -104q-150 0 -245 47t-138 125q-26 45 -34.5 92.5t-8.5 140.5v713h197v-676q0 -129 16 -168q22 -54 78.5 -83.5t136.5 -29.5q131 0 185 70q24 31 32.5 69.5t8.5 116.5v701h198v-709zM965 1247l-74 -104l-283 176
l-274 -176l-66 104l346 283z" />
    <glyph glyph-name="udieresis" unicode="&#xfc;" horiz-adv-x="1220" 
d="M1036 391q0 -129 -20.5 -190t-77.5 -115q-113 -104 -328 -104q-150 0 -245 47t-138 125q-26 45 -34.5 92.5t-8.5 140.5v713h197v-676q0 -129 16 -168q22 -54 78.5 -83.5t136.5 -29.5q131 0 185 70q24 31 32.5 69.5t8.5 116.5v701h198v-709zM944 1290q0 -53 -35 -91
t-84 -38q-51 0 -85.5 38t-34.5 91t34.5 90t85.5 37q48 0 83.5 -37.5t35.5 -89.5zM518 1290q0 -53 -35 -91t-86 -38q-49 0 -83.5 38t-34.5 91t34.5 90t83.5 37q50 0 85.5 -37.5t35.5 -89.5z" />
    <glyph glyph-name="yacute" unicode="&#xfd;" horiz-adv-x="991" 
d="M991 1100l-397 -656v-444h-203v444l-391 656h240l194 -365q15 -28 30 -63.5t25 -61t11 -26.5q1 6 10 28.5t24.5 58.5t30.5 64l199 365h227zM795 1362l-445 -209l-59 111l411 272z" />
    <glyph glyph-name="thorn" unicode="&#xfe;" horiz-adv-x="1062" 
d="M1001 571q0 -166 -127 -264q-63 -48 -132.5 -69t-174.5 -21h-178v-217h-194v1100h194v-197h125q138 0 200 -12t117 -41q81 -45 125.5 -117t44.5 -162zM784 559q0 46 -14 80t-36 54t-56.5 31.5t-68 15t-77.5 3.5h-143v-370h174q106 0 163.5 43t57.5 143z" />
    <glyph glyph-name="ydieresis" unicode="&#xff;" horiz-adv-x="991" 
d="M991 1100l-397 -656v-444h-203v444l-391 656h240l194 -365q16 -29 32.5 -67t25.5 -61l8 -23q30 88 65 151l199 365h227zM401 1284q0 -51 -34.5 -87t-85.5 -36q-50 0 -85.5 36t-35.5 87q0 49 35.5 84t85.5 35q51 0 85.5 -34.5t34.5 -84.5zM825 1284q0 -51 -35 -87t-85 -36
t-85.5 36t-35.5 87q0 50 35 84.5t86 34.5q50 0 85 -35t35 -84z" />
    <glyph glyph-name="OE" unicode="&#x152;" horiz-adv-x="1773" 
d="M1712 0h-874q-197 0 -293 22t-195 101q-217 176 -217 584q0 320 152 512q115 143 282 178q71 14 213 14h901l-24 -162h-543v-430h453v-166h-453v-483h598v-170zM922 174v1053q-15 1 -50 5.5t-68 7.5t-61 3q-119 0 -191 -34.5t-116 -114.5q-76 -141 -76 -365
q0 -161 22 -266t81 -180q100 -127 256 -127q88 0 203 18z" />
    <glyph glyph-name="oe" unicode="&#x153;" horiz-adv-x="1576" 
d="M1516 0h-805q-94 0 -176.5 17t-157.5 57.5t-128 102.5t-84.5 156.5t-31.5 213.5q0 121 35.5 217.5t93.5 158t137 102.5t160 58t168 17h772l-26 -162h-465v-285h387v-159h-385v-326h506v-168zM813 154v782h-129q-171 0 -249.5 -96.5t-78.5 -280.5q0 -96 15 -166t51.5 -126
t103.5 -84.5t164 -28.5h123z" />
    <glyph glyph-name="Ydieresis" unicode="&#x178;" horiz-adv-x="1040" 
d="M1071 1411l-450 -850v-561h-205v565l-447 846h242l233 -481q45 -91 78 -182q54 123 82 180l238 483h229zM854 1612q0 -53 -35 -91t-84 -38q-51 0 -86 38t-35 91t35 90t86 37q48 0 83.5 -37.5t35.5 -89.5zM422 1612q0 -53 -35 -91t-86 -38q-49 0 -84 38t-35 91t35 90
t84 37q50 0 85.5 -37.5t35.5 -89.5z" />
    <glyph glyph-name="circumflex" unicode="&#x2c6;" horiz-adv-x="819" 
d="M758 1247l-74 -104l-283 176l-274 -176l-66 104l347 283z" />
    <glyph glyph-name="tilde" unicode="&#x2dc;" horiz-adv-x="786" 
d="M745 1337q-55 -70 -107 -102.5t-134 -32.5q-42 0 -77.5 13.5t-57 29.5t-55.5 29.5t-74 13.5q-43 0 -71.5 -18.5t-64.5 -59.5l-63 107q54 70 105.5 101.5t134.5 31.5q42 0 77.5 -13t57 -29t55.5 -29t74 -13q43 0 71.5 18.5t65.5 59.5z" />
    <glyph glyph-name="uni2000" unicode="&#x2000;" horiz-adv-x="948" 
 />
    <glyph glyph-name="uni2001" unicode="&#x2001;" horiz-adv-x="1896" 
 />
    <glyph glyph-name="uni2002" unicode="&#x2002;" horiz-adv-x="948" 
 />
    <glyph glyph-name="uni2003" unicode="&#x2003;" horiz-adv-x="1896" 
 />
    <glyph glyph-name="uni2004" unicode="&#x2004;" horiz-adv-x="632" 
 />
    <glyph glyph-name="uni2005" unicode="&#x2005;" horiz-adv-x="474" 
 />
    <glyph glyph-name="uni2006" unicode="&#x2006;" horiz-adv-x="316" 
 />
    <glyph glyph-name="uni2007" unicode="&#x2007;" horiz-adv-x="316" 
 />
    <glyph glyph-name="uni2008" unicode="&#x2008;" horiz-adv-x="237" 
 />
    <glyph glyph-name="uni2009" unicode="&#x2009;" horiz-adv-x="379" 
 />
    <glyph glyph-name="uni200A" unicode="&#x200a;" horiz-adv-x="105" 
 />
    <glyph glyph-name="uni2010" unicode="&#x2010;" horiz-adv-x="620" 
d="M518 461h-416v186h416v-186z" />
    <glyph glyph-name="uni2011" unicode="&#x2011;" horiz-adv-x="620" 
d="M518 461h-416v186h416v-186z" />
    <glyph glyph-name="figuredash" unicode="&#x2012;" horiz-adv-x="620" 
d="M518 461h-416v186h416v-186z" />
    <glyph glyph-name="endash" unicode="&#x2013;" horiz-adv-x="1189" 
d="M1087 492h-985v153h985v-153z" />
    <glyph glyph-name="emdash" unicode="&#x2014;" horiz-adv-x="1648" 
d="M1546 492h-1444v153h1444v-153z" />
    <glyph glyph-name="quoteleft" unicode="&#x2018;" horiz-adv-x="526" 
d="M434 1368q-56 -23 -94.5 -68.5t-38.5 -85.5q0 -8 3 -14.5t10.5 -12.5t13.5 -9l18 -9t19 -10q67 -37 67 -119q0 -65 -43 -109t-106 -44q-74 0 -122 59t-48 152q0 118 72.5 216.5t183.5 145.5z" />
    <glyph glyph-name="quoteright" unicode="&#x2019;" horiz-adv-x="526" 
d="M414 1231q0 -118 -72.5 -217t-183.5 -146l-66 93q56 23 94.5 68t38.5 85q0 8 -3 14.5t-10 12.5t-13 9t-18.5 9.5t-18.5 9.5q-68 37 -68 119q0 65 43.5 109.5t106.5 44.5q74 0 122 -59t48 -152z" />
    <glyph glyph-name="quotesinglbase" unicode="&#x201a;" horiz-adv-x="526" 
d="M414 70q0 -118 -72.5 -217t-183.5 -146l-66 92q56 23 94.5 68.5t38.5 85.5q0 8 -3 14.5t-10 12.5t-13 9t-18.5 9.5t-18.5 9.5q-68 37 -68 119q0 65 43.5 109.5t106.5 44.5q74 0 122 -59t48 -152z" />
    <glyph glyph-name="quotedblleft" unicode="&#x201c;" horiz-adv-x="950" 
d="M858 1368q-56 -23 -94.5 -68.5t-38.5 -85.5q0 -8 3 -14.5t10 -12.5t13 -9t18.5 -9.5t18.5 -9.5q68 -37 68 -119q0 -65 -43 -109t-106 -44q-74 0 -122 59t-48 152q0 118 72.5 216.5t183.5 145.5zM434 1368q-56 -23 -94.5 -68.5t-38.5 -85.5q0 -8 3 -14.5t10.5 -12.5
t13.5 -9l18 -9t19 -10q67 -37 67 -119q0 -65 -43 -109t-106 -44q-74 0 -122 59t-48 152q0 118 72.5 216.5t183.5 145.5z" />
    <glyph glyph-name="quotedblright" unicode="&#x201d;" horiz-adv-x="950" 
d="M838 1231q0 -118 -72.5 -217t-183.5 -146l-66 93q56 23 94.5 68t38.5 85q0 8 -3 14.5t-10 12.5t-13 9t-18.5 9.5t-18.5 9.5q-68 37 -68 119q0 65 43.5 109.5t106.5 44.5q74 0 122 -59t48 -152zM414 1231q0 -118 -72.5 -217t-183.5 -146l-66 93q56 23 94.5 68t38.5 85
q0 8 -3 14.5t-10 12.5t-13 9t-18.5 9.5t-18.5 9.5q-68 37 -68 119q0 65 43.5 109.5t106.5 44.5q74 0 122 -59t48 -152z" />
    <glyph glyph-name="quotedblbase" unicode="&#x201e;" horiz-adv-x="954" 
d="M842 70q0 -118 -72.5 -217t-183.5 -146l-66 92q56 23 94.5 68.5t38.5 85.5q0 8 -3 14.5t-10 12.5t-13 9t-18.5 9.5t-18.5 9.5q-68 37 -68 119q0 65 43.5 109.5t106.5 44.5q74 0 122 -59t48 -152zM414 70q0 -118 -72.5 -217t-183.5 -146l-66 92q56 23 94.5 68.5t38.5 85.5
q0 8 -3 14.5t-10 12.5t-13 9t-18.5 9.5t-18.5 9.5q-68 37 -68 119q0 65 43.5 109.5t106.5 44.5q74 0 122 -59t48 -152z" />
    <glyph glyph-name="bullet" unicode="&#x2022;" horiz-adv-x="1038" 
d="M874 727q0 -151 -104 -256.5t-252 -105.5t-251 105.5t-103 256.5t103 257t251 106t252 -106t104 -257z" />
    <glyph glyph-name="ellipsis" unicode="&#x2026;" horiz-adv-x="1552" 
d="M1409 129q0 -64 -43.5 -111t-103.5 -47q-61 0 -103.5 46.5t-42.5 111.5q0 63 42 106.5t102 43.5q62 0 105.5 -43.5t43.5 -106.5zM436 129q0 -64 -43 -111t-102 -47q-61 0 -104.5 46.5t-43.5 111.5q0 63 42 106.5t102 43.5q62 0 105.5 -43.5t43.5 -106.5zM922 129
q0 -65 -43 -111.5t-103 -46.5q-61 0 -103 46.5t-42 111.5q0 63 40.5 106.5t100.5 43.5q63 0 106.5 -43.5t43.5 -106.5z" />
    <glyph glyph-name="uni202F" unicode="&#x202f;" horiz-adv-x="379" 
 />
    <glyph glyph-name="guilsinglleft" unicode="&#x2039;" horiz-adv-x="612" 
d="M530 864l-237 -364l235 -367l-127 -86l-299 453l299 454z" />
    <glyph glyph-name="guilsinglright" unicode="&#x203a;" horiz-adv-x="612" 
d="M510 500l-299 -453l-127 86l240 367l-242 362l129 92z" />
    <glyph glyph-name="uni205F" unicode="&#x205f;" horiz-adv-x="474" 
 />
    <glyph glyph-name="Euro" unicode="&#x20ac;" horiz-adv-x="1280" 
d="M1198 57q-150 -77 -319 -77q-274 0 -439 210q-95 124 -131 283h-227v154h207q-2 23 -2 67q0 32 4 94h-209v154h233q25 98 64 172q79 152 212.5 238t295.5 86q155 0 284 -70l-34 -170q-112 82 -250 82q-104 0 -184 -52t-130 -151q-30 -59 -45 -135h498v-154h-518
q-2 -29 -2 -90q0 -13 1 -36.5t1 -34.5h518v-154h-502q11 -55 33 -106q48 -114 139 -172t207 -58q147 0 260 88z" />
    <glyph glyph-name="trademark" unicode="&#x2122;" horiz-adv-x="1980" 
d="M1858 606h-154v664l-16 -4l-250 -660h-103l-252 660l-12 2v-662h-153v844h233l238 -625l237 625h232v-844zM731 1305h-258v-699h-154v699h-258v145h670v-145z" />
    <glyph glyph-name="uniE000" unicode="&#xe000;" horiz-adv-x="1095" 
d="M0 1096h1096v-1096h-1096v1096z" />
    <glyph glyph-name="uniFB01" unicode="&#xfb01;" 
d="M850 1100l-25 -158h-436v-287h356v-157h-356v-498h-194v1100h655zM1223 0h-199v1100h199v-1100z" />
    <glyph glyph-name="uniFB02" unicode="&#xfb02;" horiz-adv-x="1685" 
d="M850 1100l-25 -158h-436v-287h356v-157h-356v-498h-194v1100h655zM1686 162l-31 -162h-631v1100h199v-938h463z" />
    </font>
</defs>
</svg>
